HIERARCHY
ROOT Hips
{
	OFFSET 26.750740 42.421200 -31.489761
	CHANNELS 6 Xposition Yposition Zposition Xrotation Yrotation Zrotation
	JOINT Chest
	{
		OFFSET -0.549623 13.632694 -0.041548
		CHANNELS 3 Xrotation Yrotation Zrotation
		JOINT Chest2
		{
			OFFSET 2.761261 21.168320 -1.828733
			CHANNELS 3 Xrotation Yrotation Zrotation
			JOINT Chest3
			{
				OFFSET 6.768137 13.054138 -2.569370
				CHANNELS 3 Xrotation Yrotation Zrotation
				JOINT Neck
				{
					OFFSET 7.415104 15.608452 0.092381
					CHANNELS 3 Xrotation Yrotation Zrotation
					JOINT Head
					{
						OFFSET 4.786983 9.239670 -1.241352
						CHANNELS 3 Xrotation Yrotation Zrotation
						End Site
						{
							OFFSET 4.851654 9.205666 -1.242897
						}
					}
				}
				JOINT LeftCollar
				{
					OFFSET 3.980873 12.758766 4.813623
					CHANNELS 3 Xrotation Yrotation Zrotation
					JOINT LeftUpArm
					{
						OFFSET 12.921532 -3.107582 11.483740
						CHANNELS 3 Xrotation Yrotation Zrotation
						JOINT LeftLowArm
						{
							OFFSET 10.789581 15.530350 27.966423
							CHANNELS 3 Xrotation Yrotation Zrotation
							JOINT LeftHand
							{
								OFFSET 9.710045 17.826294 22.110733
								CHANNELS 3 Xrotation Yrotation Zrotation
								End Site
								{
									OFFSET 2.122200 3.896057 4.832411
								}
							}
						}
					}
				}
				JOINT RightCollar
				{
					OFFSET 2.314590 13.599106 -3.393471
					CHANNELS 3 Xrotation Yrotation Zrotation
					JOINT RightUpArm
					{
						OFFSET 10.367096 -1.766411 -14.067677
						CHANNELS 3 Xrotation Yrotation Zrotation
						JOINT RightLowArm
						{
							OFFSET 7.630802 20.048271 -26.068600
							CHANNELS 3 Xrotation Yrotation Zrotation
							JOINT RightHand
							{
								OFFSET 12.573040 16.064331 -22.018417
								CHANNELS 3 Xrotation Yrotation Zrotation
								End Site
								{
									OFFSET 2.747955 3.510986 -4.812370
								}
							}
						}
					}
				}
			}
		}
	}
	JOINT LeftUpLeg
	{
		OFFSET 4.340685 0.202312 9.029766
		CHANNELS 3 Xrotation Yrotation Zrotation
		JOINT LeftLowLeg
		{
			OFFSET 37.093719 -17.629559 23.606016
			CHANNELS 3 Xrotation Yrotation Zrotation
			JOINT LeftFoot
			{
				OFFSET 44.553276 2.626522 -2.945343
				CHANNELS 3 Xrotation Yrotation Zrotation
				JOINT LeftToe
				{
					OFFSET 22.659164 -4.117952 5.400394
					CHANNELS 3 Xrotation Yrotation Zrotation
					End Site
					{
						OFFSET 13.309143 -9.031304 17.345352
					}
				}
			}
		}
	}
	JOINT RightUpLeg
	{
		OFFSET -4.340679 -0.202511 -9.029770
		CHANNELS 3 Xrotation Yrotation Zrotation
		JOINT RightLowLeg
		{
			OFFSET -44.087593 -17.317160 -0.642166
			CHANNELS 3 Xrotation Yrotation Zrotation
			JOINT RightFoot
			{
				OFFSET 41.898869 -1.185673 -15.609669
				CHANNELS 3 Xrotation Yrotation Zrotation
				JOINT RightToe
				{
					OFFSET 18.471453 -10.857302 -10.024067
					CHANNELS 3 Xrotation Yrotation Zrotation
					End Site
					{
						OFFSET 5.408688 -19.851904 -11.670654
					}
				}
			}
		}
	}
}
MOTION
Frames: 8
Frame Time: 0.033333
0.742428 105.332657 -1.111753 10.963353 63.144969 -6.858339 1.311934 -0.520017 9.274424 2.123149 -0.521792 15.169527 2.813502 18.238745 0.290823 4.796555 3.356226 3.894546 0.000001 0.000000 0.000002 31.324586 -23.853138 5.733067 73.278764 -32.958630 11.032320 10.015920 -9.159139 21.848855 0.000003 0.000005 0.000001 -40.095181 28.478151 29.442651 -70.550212 22.787297 30.669458 -0.619531 17.925084 34.337465 0.000002 -0.000003 0.000003 28.149177 -17.707972 -49.807857 -11.118905 -21.866663 -27.402241 3.294011 -35.764172 -21.542073 0.000000 -0.000002 -0.000002 -1.934378 -0.704303 67.439915 12.107687 26.630506 -141.298828 -23.128706 13.598860 -21.622670 0.000001 0.000000 -0.000003 
0.738438 105.340912 -1.115488 10.980322 62.989357 -7.041945 1.369260 -0.514355 9.414205 1.976434 -0.505898 14.754112 2.627854 18.036696 0.727553 4.995871 3.369121 3.996182 0.000000 -0.000000 0.000004 31.120456 -23.425370 5.478505 73.557592 -32.950916 10.946083 10.305304 -8.992599 21.722030 -0.000000 -0.000003 -0.000002 -39.923730 28.557794 29.569480 -70.525610 22.945233 30.993708 -0.888588 17.666223 34.098531 0.000001 -0.000001 0.000002 27.966901 -17.718390 -49.866791 -10.932591 -21.653223 -27.098811 3.196775 -35.536743 -21.350977 -0.000001 0.000001 -0.000001 -2.008026 -0.716194 67.594086 12.129814 26.614797 -141.220377 -23.208307 13.706788 -21.752962 -0.000002 0.000002 0.000000 
0.741301 105.349472 -1.121258 10.704228 63.059660 -7.096614 1.560117 -0.492751 9.794475 1.614747 -0.512558 14.083157 2.781435 18.259821 1.160770 4.788286 3.241292 4.182647 0.000000 0.000000 0.000001 31.115203 -23.777161 5.571636 73.500157 -32.767983 10.471953 10.412456 -9.064511 21.635121 -0.000001 0.000000 -0.000000 -39.918409 28.867477 29.765797 -70.757932 22.758839 30.420290 -0.338122 17.937320 34.236736 0.000006 -0.000003 -0.000000 28.189280 -17.580261 -49.648812 -10.959644 -21.639245 -27.056797 3.173070 -35.740010 -21.463111 -0.000000 -0.000003 -0.000003 -1.947494 -0.737917 67.781643 12.087903 26.491811 -141.085535 -23.589552 13.742049 -21.748516 -0.000000 0.000001 -0.000002 
0.750019 105.358002 -1.127813 11.148649 62.859768 -7.121153 1.172980 -0.512139 9.103499 2.094130 -0.513147 15.089826 2.594664 18.169136 0.708374 4.853784 3.319459 4.363732 0.000000 0.000001 0.000002 31.318432 -23.513992 5.247553 73.310736 -32.986672 10.919690 10.343521 -8.968583 21.462087 0.000000 -0.000001 0.000001 -40.043661 29.109006 30.090439 -70.447254 22.798123 30.463026 -0.125710 18.130416 34.237273 0.000006 -0.000005 0.000003 27.897334 -17.838306 -49.952561 -10.945092 -21.659992 -27.065291 2.840853 -35.947566 -21.537545 -0.000002 0.000001 -0.000002 -2.215624 -0.648932 67.170416 12.117260 26.577571 -141.001237 -23.640465 13.555744 -21.650434 -0.000000 -0.000000 -0.000002 
0.759945 105.367905 -1.130140 11.307848 62.933322 -7.416704 1.179842 -0.489219 9.421184 2.011553 -0.557869 15.124754 2.624796 18.079029 0.633914 4.816763 3.257736 4.590465 -0.000000 -0.000000 0.000001 31.316038 -23.469215 4.902428 73.158634 -33.050797 10.536036 10.503643 -9.436092 21.257623 -0.000001 -0.000001 -0.000000 -39.914014 29.876969 30.772642 -70.886818 22.757354 29.873301 0.604186 18.505030 34.067098 0.000003 0.000002 -0.000002 27.963800 -17.717828 -49.673667 -10.785565 -21.589086 -27.041206 2.796292 -35.985678 -21.576836 -0.000004 -0.000004 -0.000003 -2.483879 -0.604695 67.015098 12.163178 26.482916 -140.413854 -23.366907 13.583729 -21.722904 -0.000000 -0.000001 -0.000003 
0.775808 105.376999 -1.138685 11.650606 63.391382 -7.825712 1.045694 -0.503191 9.468926 2.013873 -0.613495 15.417175 2.554955 17.769572 0.451332 4.687735 3.205396 4.699738 0.000000 -0.000000 -0.000003 31.212633 -23.339586 4.959777 73.308215 -32.999089 10.553134 10.662871 -9.389155 21.404025 0.000001 0.000001 0.000002 -39.993223 29.241686 30.029391 -70.592771 22.870716 30.181124 -0.041191 18.292230 33.986813 -0.000001 -0.000001 0.000005 27.721533 -17.805832 -49.814953 -10.762907 -21.508568 -26.866766 3.219111 -35.955174 -21.716178 -0.000001 0.000001 -0.000002 -2.694963 -0.592143 66.785535 12.029749 26.399460 -139.985861 -23.145923 13.806946 -21.990139 -0.000000 0.000001 -0.000000 
0.797327 105.392372 -1.147158 11.740083 63.334521 -7.813373 1.291257 -0.498810 9.706567 1.504421 -0.608239 14.573932 2.758384 17.998255 0.992445 4.307202 3.215903 5.103102 0.000001 -0.000000 -0.000001 31.014817 -23.302568 5.148958 73.524555 -33.119420 11.056027 10.764015 -8.931027 21.090012 0.000001 0.000001 -0.000004 -40.071224 28.366431 29.055642 -70.703215 22.799008 30.407654 -0.493918 18.157225 33.887150 0.000008 -0.000003 -0.000003 27.965791 -17.649484 -49.493948 -10.875726 -21.864049 -27.328079 2.960197 -35.775691 -21.539162 -0.000002 0.000001 -0.000002 -2.829704 -0.532283 66.549579 12.157750 26.355250 -139.586226 -23.142260 13.749082 -22.116339 -0.000000 0.000000 -0.000002 
0.819746 105.406967 -1.154284 11.866775 63.082275 -7.880464 1.398652 -0.497540 9.736331 1.282344 -0.554684 13.792210 2.763797 18.362924 1.689445 3.840347 2.999228 5.229224 0.000001 0.000001 0.000001 30.649569 -23.491193 5.407725 73.665004 -33.155989 10.740370 11.088737 -9.107597 20.946348 0.000004 0.000006 -0.000001 -39.982189 28.929505 29.666616 -71.152505 22.636080 29.855276 0.309736 18.399990 33.767301 0.000002 -0.000001 -0.000004 27.793547 -17.684179 -49.578147 -10.827866 -21.798141 -27.322700 2.933943 -35.748725 -21.478447 -0.000000 -0.000003 -0.000001 -3.079389 -0.523950 66.216396 12.105435 26.217599 -139.205594 -23.195293 13.642880 -21.885412 -0.000002 -0.000000 -0.000002 
